<svg version="1.2" xmlns="http://www.w3.org/2000/svg" viewBox="0 0 640 1216" width="640" height="1216"><style></style><path fill-rule="evenodd" d="m451.2 1216h-322.7v-565.5h-128.5v-279.3h124.5c-9.6-126.5 14.1-219.1 71.9-282.4 49.2-53.8 122.3-83.7 217.2-88.8h226.4v269.5h-177.8c-7.8 13.8-11.9 47.9-11.9 101.7h188.3v279.4h-187.4zm-251.6-65.8h180.6v-565.4h187.4v-147.9h-187.2l-0.7-32.1c-2.1-89.4 0-165.9 47.6-195.5l9-5.6h132.6v-138h-153.3c-73.7 4-128.4 25.5-165 65.6-49.3 53.9-66.8 144.5-52 269.2l4.3 36.5h-131.9v147.9h128.6z"/></svg>