<svg version="1.2" xmlns="http://www.w3.org/2000/svg" viewBox="0 0 1024 1025" width="1024" height="1025"><style>.a{fill:#231f20}</style><path fill-rule="evenodd" class="a" d="m1024 267.3v490c0 147-120.2 267.3-267.1 267.3h-489.8c-147 0-267.1-120.3-267.1-267.3v-490c0-147.1 120.1-267.3 267.1-267.3h489.7c147 0 267.2 120.2 267.2 267.3zm-267.2-200.5h-489.7c-110.4 0-200.3 90-200.3 200.5v490c0 110.5 89.9 200.5 200.3 200.5h489.7c110.5 0 200.4-90 200.4-200.5v-490c0-110.5-89.9-200.5-200.4-200.5z"/><path fill-rule="evenodd" class="a" d="m776 512.6c0 145.8-118.2 264-264 264-145.9 0-264.1-118.2-264.1-264 0-145.9 118.3-264.1 264.1-264.1 145.8 0 264 118.2 264 264.1zm-461.3 0c0 108.7 88.4 197.3 197.3 197.3 108.7 0 197.3-88.6 197.3-197.3 0-108.9-88.6-197.3-197.3-197.3-108.9 0-197.3 88.4-197.3 197.3z"/><path class="a" d="m785.5 179.9c33 0 59.7 26.7 59.7 59.7 0 33-26.7 59.8-59.7 59.8-33 0-59.7-26.8-59.7-59.8 0-33 26.7-59.7 59.7-59.7z"/></svg>