<svg version="1.2" xmlns="http://www.w3.org/2000/svg" viewBox="0 0 1067 1204" width="1067" height="1204"><style>.a{fill:#fdc305}.b{fill:#f06351}</style><path class="a" d="m194.3 663.5l1.7-72.5c213.3-29.1 429.9-43.8 645.2-42.6-0.3 19.4-0.9 38.8-1.8 58.3 0 0 93.5-43.2 193.1-58.1-75.7-202.3-270.8-346.3-499.6-346.3-266.3 0-487.1 195.2-526.9 450.4 69.5 4.3 188.3 10.8 188.3 10.8z"/><path class="a" d="m871.6 775.6c-37.1 41.1-44.5 38.4-44.5 110.6 0 29.1 0.9 156.8 1.1 293.5 143.5-95.5 238-258.8 238-444.1 0-33.7-3.1-66.6-9.1-98.5-58 34-153.9 103.6-185.5 138.5z"/><path class="a" d="m203.5 823.3c0 0-121.4-46.1-165.9-58.4-13.7-3.8-25.8-7.3-37.6-9.1 7.2 193.6 117.6 360.8 277.7 448.2z"/><path class="b" d="m841.4 548.3c4.7-271.4-44.8-527-44.8-527 0 0-4.6-41.5-27.7-7.7-23 33.8-38.4 126-38.4 126-238.1-13.9-408.6 10.7-408.6 10.7-26.1-87.5-70.6-125.9-92.1-116.7-21.5 9.2-23.1 106-23.1 106l-10.5 451.2c213.3-29 429.9-43.8 645.2-42.5z"/><path  d="m397.2 448.3c-1.5-2.9 32.7 21.8 45 29.5 12.3 7.6 19.5 13.5 19.5 18.9 0 5.4-8.4 10.7-20 10.7-11.5 0-29.1-3.8-30.7-8.4 0 0 19.2-0.8 30-0.8h9.2c0 0-44.5-33-53-49.9z"/><path  d="m636.3 451.9c0 0-33.5 40.8-34.7 42.7-1.3 1.8-5.3 10.9 5.9 9.3 11.2-1.5 35.6-7.1 39-9 3.4-1.9 2.2-6.3-3.7-5.6-6.6 0.7-21.9 1.5-31.5 3.4l26.9-40.3c0 0 0.8-3.8-1.9-0.5z"/><path  d="m536.1 646.8c0 0 25.9-11.2 34.9-32.2 8.9-21 1.1-29.2-14.1-31.3-15.3-2.1-43-1-55.6 10.8-12.7 11.8-11 23.4-1.8 30.6 9.3 7.2 27.1 19.3 36.6 22.1z"/><path class="b" d="m523.2 686.9c0 0-5.8 11.9-14.7 19-7.8 6.2-18.2 11.6-32.6 12.3-20.4 1.1-33.7-5.4-46.4-14.2-6.5-4.5-12.7-8.1-17.1-14.1-5-5.9-11.4-8.1-11.4-8.1 0 0 24 131.1 82.1 151.9 58.2 20.7 68.6-24 70.5-36.3 1.5-10.4 0-66.6-26.3-103.1-0.5-9.7-1-3.2-4.1-7.4z"/><path  d="m470.7 723.1q-0.3 0-0.6 0c-41.3-0.3-73.3-43.5-74.6-45.4-1.5-2-1.1-4.9 1-6.4 2.1-1.5 4.9-1.1 6.4 1 0.3 0.4 30.6 41.3 67.4 41.6q0.1 0 0.3 0c18.7 0 36.3-10.7 52.1-31.7l4.6-6 3.3 6.8c0.1 0.2 11.9 24.2 31.6 25.4 15.9 1 33.7-13.1 51.7-40.9 1.4-2.1 4.2-2.7 6.4-1.3 2.1 1.4 2.7 4.2 1.3 6.3-20.2 31.2-40.5 46.4-60 45.1-18.1-1.1-30.2-15.8-35.8-24.4-16.6 19.9-35.1 29.9-55.1 29.9z"/><path class="b" d="m839.6 605.9c0 0-81.4 71.9-162.1 166.1-80.6 94.3-169.3 156.1-169.3 156.1-6.9-16.9-51.9-48.3-51.9-48.3 0 0-100.2-68.5-165.8-122.4-37.8-30.9-75.1-69.3-100.1-96.3-9.3-0.5-34.1-1.9-64.2-3.5 150.2 223 383.1 281.7 383.1 281.7 27.7-4.5 104.9-59.5 162.5-104.4 57.6-44.9 152-144.8 190-188.6 19.3-22.1 30.2-45.4 36.4-63-35.5 12.2-58.6 22.6-58.6 22.6z"/></svg>