<svg version="1.2" xmlns="http://www.w3.org/2000/svg" viewBox="0 0 1379 457" width="1379" height="457"><style>.a{fill:#fdc305}.b{fill:#f06351}.c{fill:#e55645}.d{fill:#111}.e{fill:#444}</style><path fill-rule="evenodd" class="a" d="m367.4 441.2c-10.7 4.4-21.5 7.9-32.4 10.5 2.3-2.4 4.7-5.7 6.6-9.2 5.6-10 14.8-46.3 19.2-80.2q0.2-1.8 0.4-3.5 0-0.1 0-0.3c-6 11.1-14.1 21.1-23.1 29.6-1.2 17.3-7.6 44.2-9.9 59-0.4 2.8-0.4 4.8-0.1 6.1-14.2 2.8-28.5 4-42.6 3.8-1.3-19.2-2.2-36.4-2.2-36.4q0.1 0 0.1-0.1c-13.3-5.9-26-12.4-37.9-20.3 4.2 19.5 8.8 37.9 13.4 54.6-68.3-10.2-129.8-54.8-158.3-123.2-43.4-103.9 5.6-223.4 109.6-266.8 103.9-43.5 223.4 5.6 266.8 109.5 43.4 104-5.6 223.5-109.6 266.9zm104.7-250.9c-5-10.4-12.6-21.1-14.6-24.2-1.9-3.1-18.4-23.4-21.1-26.9-2.7-3.4-6.1-3-6.1-3-29.9-0.4-64.9 15.7-64.9 15.7q0.4-7.3 0.5-14.5c-53.8-0.3-108 3.3-161.3 10.6l-0.4 18.1c0 0-49.1-2.7-58-3.4-8.8-0.8-9.9 1.9-9.9 1.9-6.9 5-16.5 23-16.5 23 0 0-10.4 16.1-15.4 29.6-5 13.4-4.2 24.9 2.3 24.9 6.5 0 16.5 0.4 16.1-3.4-0.4-3.9-3.8-11.6-3.8-11.6 0 0-0.4-20.3 13.8-30.7 14.2-10.3 21.1-8 32.3-4.9 11.1 3 41.4 14.5 41.4 14.5l20.5 105.1q0.2 0 0.4 0 0.1 0 0.3 0.1 0 0 0 0 0.2 0 0.3 0 0 0 0 0l8.1 46.5c0 0 14.6-1.6 62.1-14.2 47.6-12.7 64.9-17.3 64.9-17.3 1-39.4-0.7-90.8-0.7-104.4 0-18.1 1.8-17.4 11.1-27.7 10.7-11.9 51.4-39.9 57.2-39.5 5.7 0.4 21.1 27.6 21.1 27.6 0 0 0.4 7.3 1.5 17.7 1.2 10.4 8.5 8.1 11.9 4.6 3.5-3.5 6.9-14.2 6.9-14.2z"/><path class="b" d="m449.7 155.9c3.8 4.7 7.1 8.9 7.8 10.2 2 3.1 9.6 13.8 14.6 24.2 0 0-3.4 10.7-6.9 14.2-3.4 3.5-10.7 5.8-11.9-4.6-1.1-10.4-1.5-17.7-1.5-17.7 0 0-15.4-27.2-21.1-27.6-5.8-0.4-46.5 27.6-57.2 39.5-9.3 10.3-11.1 9.6-11.1 27.7 0 11.9 1.3 52.9 1 89.4 14.4 1.7 35.6 5.6 41.9 15 0 0-2.3-57.2 62.2-27.3 0 0 2.3-77.9 91.4-57.9 0 0-45.2-55.5-109.2-85.1z"/><path class="b" d="m365.9 137.4c1.1-67.9-11.2-131.7-11.2-131.7 0 0-1.2-10.4-6.9-1.9-5.8 8.4-9.6 31.4-9.6 31.4-59.5-3.4-102.1 2.7-102.1 2.7-6.6-21.9-17.7-31.5-23.1-29.2-5.3 2.3-5.7 26.5-5.7 26.5l-2.7 112.8c53.3-7.3 107.5-10.9 161.3-10.6z"/><path class="c" d="m361.2 358.5c1-8.5 1.6-19.8 1.9-32.3 0 0-17.3 4.6-64.9 17.3-47.5 12.6-62.1 14.2-62.1 14.2l8.8 39.9q0.3 1.3 0.6 2.6c11.9 7.9 24.6 14.4 37.9 20.3 34.9-17.2 54.8-32.9 54.8-32.9q0 0.2-0.1 0.5c9-8.5 17.1-18.5 23.1-29.6z"/><path  d="m254.9 112.4c-0.4-0.7 8.1 5.4 11.2 7.3 3.1 2 4.9 3.4 4.9 4.8 0 1.3-2.1 2.7-5 2.7-2.9 0-7.3-1-7.7-2.2 0 0 4.8-0.1 7.5-0.1h2.3c0 0-11.1-8.3-13.2-12.5z"/><path  d="m314.6 113.3c0 0-8.3 10.2-8.7 10.6-0.3 0.5-1.3 2.8 1.5 2.4 2.8-0.4 8.9-1.8 9.8-2.3 0.8-0.4 0.5-1.5-1-1.4-1.6 0.2-5.4 0.4-7.8 0.9l6.7-10.1c0 0 0.2-1-0.5-0.1z"/><path  d="m289.6 162c0 0 6.5-2.8 8.7-8.1 2.2-5.2 0.3-7.3-3.5-7.8-3.8-0.5-10.8-0.2-13.9 2.7-3.2 3-2.8 5.8-0.5 7.6 2.4 1.8 6.8 4.9 9.2 5.6z"/><path class="b" d="m286.3 172c0 0-1.4 3-3.6 4.7-2 1.6-4.6 3-8.2 3.1-5.1 0.3-8.4-1.3-11.6-3.5-1.6-1.2-3.1-2.1-4.2-3.6-1.3-1.4-2.9-2-2.9-2 0 0 6 32.8 20.5 38 14.6 5.2 17.2-6 17.6-9.1 0.4-2.6 0-16.6-6.5-25.8-0.1-2.4-0.3-0.8-1.1-1.8z"/><path  d="m273.2 181.1q0 0-0.1 0c-10.3-0.1-18.3-10.9-18.7-11.4-0.3-0.5-0.2-1.2 0.3-1.6 0.5-0.4 1.2-0.3 1.6 0.3 0.1 0.1 7.7 10.3 16.8 10.4q0.1 0 0.1 0c4.7 0 9.1-2.7 13-8l1.2-1.5 0.8 1.7c0 0.1 3 6.1 7.9 6.4 4 0.2 8.4-3.3 12.9-10.2 0.4-0.6 1.1-0.7 1.6-0.4 0.6 0.4 0.7 1.1 0.4 1.6-5.1 7.8-10.2 11.6-15.1 11.3-4.5-0.3-7.5-4-8.9-6.1-4.1 4.9-8.8 7.5-13.8 7.5z"/><path fill-rule="evenodd" class="d" d="m268.7 311.9l9.1-44.9-24.9 10.5 59.7-77.8-9.1 44.9 24.9-10.4zm16.6-53.9l-6.4 32 32.9-43.1-15.7 6.6 6.4-32-32.9 43z"/><path class="b" d="m365.4 151.8c0 0-20.3 17.9-40.5 41.5-20.1 23.5-42.3 39-42.3 39-1.7-4.2-12.9-12.1-12.9-12.1 0 0-25.1-17.1-41.5-30.6-9.4-7.7-18.8-17.3-25-24-2.3-0.2-8.5-0.5-16-0.9 37.5 55.7 95.7 70.4 95.7 70.4 6.9-1.1 26.2-14.9 40.6-26.1 14.4-11.2 38-36.2 47.5-47.1 4.8-5.6 7.5-11.4 9.1-15.8-8.9 3.1-14.7 5.7-14.7 5.7z"/><path class="b" d="m206.5 206c0 0-30.3-11.5-41.4-14.5-11.2-3.1-18.1-5.4-32.3 4.9-14.2 10.4-13.8 30.7-13.8 30.7 0 0 3.4 7.7 3.8 11.6 0.4 3.8-9.6 3.4-16.1 3.4-6.5 0-7.3-11.5-2.3-24.9 5-13.5 15.4-29.6 15.4-29.6-43.4 22.7-119.8 74.9-119.8 74.9 0 0 23.4-2.3 65.3 1.9 41.8 4.2 39.5 37.2 39.5 37.2 0 0 28-7.7 44.9-8.8 16.9-1.2 18 16.9 18 16.9l4.3 30.7c0 0 3.8-5 21.1-18.8 14.8-11.9 30.9-10.9 34.9-10.4z"/><path class="d" d="m716.5 297.4q-8-10.2-8-29.5v-42.7q0-19.7 7.9-29.8 7.9-10.1 27-10.1 18.3 0 25.9 8.9 7.5 8.9 7.5 25.5v10.1h-23.5v-11.1q0-5.3-0.5-8.5-0.6-3.3-2.7-5.4-2.1-2.1-6.5-2.1-6.7 0-8.6 4.2-1.9 4.3-1.9 12.5v54.2q0 8.4 2.2 12.5 2.2 4.2 8.3 4.2 6.1 0 7.9-4.2 1.8-4.2 1.8-12.5v-11.6h23.5v9.9q0 17-7.5 26.4-7.5 9.3-25.9 9.3-19 0-26.9-10.2z"/><path fill-rule="evenodd" class="d" d="m808.9 186.8h27l22.9 119.2h-22.3l-4.5-26.2h-18.8l-4.6 26.2h-22.8zm20.8 78.1l-7.2-48-7.1 48z"/><path class="d" d="m876.1 204.7h-18.4v-17.9h60.9v17.9h-18.1v101.3h-24.4z"/><path class="e" d="m966.5 186.8h46.2v12.3h-29.6v39.5h24v11.8h-24v43.7h29.9v11.9h-46.5z"/><path class="e" d="m1026.4 186.8h11.3l33.9 79.2v-79.2h13.8v119.2h-10.6l-34.3-81.4v81.4h-14.1z"/><path class="e" d="m1104.1 186.8h46.2v12.3h-29.6v39.5h24v11.8h-24v43.7h29.9v11.9h-46.5z"/><path fill-rule="evenodd" class="e" d="m1164 186.8h24q18.1 0 26.6 7.4 8.5 7.4 8.5 24.2 0 23-14.7 27.8l16.9 59.8h-16.1l-15.6-55.9h-12.9v55.9h-16.7zm23 51.4q10.8 0 15.4-4.3 4.6-4.2 4.6-15.4 0-7.4-1.6-11.6-1.6-4.2-5.7-6.2-4.2-2-11.7-2h-7.3v39.5z"/><path class="e" d="m1245.5 297.3q-7.3-10.3-7.3-30.4v-39.9q0-13.9 2.9-22.8 2.9-8.9 9.9-13.7 7-4.8 19.2-4.8 16.5 0 23.8 8.4 7.3 8.4 7.3 26.4v4.4h-15.6v-3.7q0-8.5-1.1-13.2-1-4.6-4.3-7-3.3-2.3-9.8-2.3-6.9 0-10.3 3.2-3.4 3.1-4.4 8.4-0.9 5.3-0.9 14.2v44.1q0 13.7 3.3 19.7 3.3 5.9 12.7 5.9 9.3 0 12.8-6.4 3.4-6.5 3.4-20.8v-8.2h-15.1v-11.8h30.1v59h-10.4l-1.6-13.7q-5.6 15.2-21.2 15.2-16.2 0-23.4-10.2z"/><path class="e" d="m1336.6 263.9l-25.8-77.1h15.5l18.2 57.5 18-57.5h15.6l-25.6 77.1v42.1h-15.9z"/></svg>