<svg version="1.2" xmlns="http://www.w3.org/2000/svg" viewBox="0 0 1278 1276"><style></style><path  d="m1146.6 602.6h-544v76.8h544l-134.4 134.4 57.6 57.6 198.4-198.4c12.8-12.8 12.8-38.4 0-57.6l-198.4-198.4-57.6 57.6z"/><path  d="m519.4 1242.6v-396.8c0-19.2-19.2-38.4-38.4-38.4h-198.4-83.2c0 44.8 38.4 76.8 76.8 76.8h160v320h-236.8c-64 6.4-115.2-44.8-121.6-108.8 0-6.4 0-6.4 0-12.8v-883.2c0-64 51.2-115.2 108.8-115.2 6.4 0 6.4 0 12.8 0h236.8v320h-153.6c-44.8 0-76.8 38.4-76.8 76.8h281.6c19.2 0 38.4-19.2 38.4-38.4v-403.2c-6.4-19.2-25.6-38.4-44.8-38.4h-281.6c-102.4-6.4-192 76.8-198.4 185.6 0 6.4 0 12.8 0 12.8v876.8c-6.4 108.8 76.8 198.4 185.6 198.4 6.4 0 12.8 0 12.8 0h281.6c19.2 6.4 38.4-12.8 38.4-32z"/></svg>