<svg version="1.2" xmlns="http://www.w3.org/2000/svg" viewBox="0 0 863 1091" width="863" height="1091"><style></style><path fill-rule="evenodd" d="m862.2 45.3v789.2l-1.3 0.8-429.7 255.7-431.2-256.5v-789.2l431.1-45.2 4.7 0.6zm-61.6 342.8v-287.3l-369.4-38.8-369.6 38.8v287.1l364.6-217.2v-3.4l2.8 1.7 2.8-1.6v3.4l368.8 217.3zm-735.5 47.9l363.4 216 57.6-34.6-59.4-34.9 0.5-45.2 97 57.2 25-16.8-122.5-72.8 0.5-45.2 161 95.7 27.5-16.2-189-112.4 0.5-45.3 227 135.1 143.3-84.5-368.6-214.8zm-3.5 363.4l369.6 219.9 369.5-219.9v-320.7l-109.3 65.1 0.4 165.7-260.6 155.9-1.5-0.8-256.7-154.3 0.4-45.2 255.2 151.7-0.6-34.5-255.3-153.4 0.5-45.3 254.1 151.3-0.5-33.5-365.2-217.3z"/></svg>