<svg version="1.2" xmlns="http://www.w3.org/2000/svg" viewBox="0 0 804 145" width="804" height="145"><style>.a{fill:#111}</style><path class="a" d="m9.8 132.9q-9.8-12-9.8-34.8v-50.7q0-23.3 9.7-35.2 9.7-11.9 33.2-11.9 22.4 0 31.7 10.6 9.4 10.6 9.4 30.1v12.1h-30.9v-14q0-8.2-1.8-12.6-1.7-4.3-8.4-4.3-6.7 0-8.9 4.6-2.1 4.6-2.1 12.8v66.1q0 8.4 2.2 12.8 2.2 4.4 8.8 4.4 6.5 0 8.3-4.4 1.9-4.4 1.9-12.8v-14.7h30.9v12.1q0 19.8-9.4 30.9-9.3 11-31.7 11-23.3 0-33.1-12.1z"/><path fill-rule="evenodd" class="a" d="m121.6 2.2h35.9l26.7 140.7h-29.1l-4.8-29.7h-21l-4.9 29.7h-29.8zm25.7 92.4l-7.6-54.9-7.5 54.9z"/><path class="a" d="m206 25.3h-21.5v-23.1h74.6v23.1h-21.3v117.6h-31.8z"/><path class="a" d="m316.3 2.2h55.3v14.6h-35.4v46.6h28.7v13.9h-28.7v51.6h35.8v14h-55.7z"/><path class="a" d="m387.9 2.2h13.6l40.6 93.5v-93.5h16.5v140.7h-12.7l-41.1-96v96h-16.9z"/><path class="a" d="m478.5 2.2h55.4v14.6h-35.5v46.6h28.8v13.9h-28.8v51.6h35.8v14h-55.7z"/><path fill-rule="evenodd" class="a" d="m550.1 2.2h28.8q21.7 0 31.8 8.8 10.2 8.8 10.2 28.6 0 27.1-17.7 32.8l20.3 70.5h-19.2l-18.7-66h-15.5v66h-20zm27.6 60.6q12.8 0 18.4-5 5.6-5 5.6-18.2 0-8.7-2-13.7-1.9-4.9-6.9-7.3-4.9-2.3-13.9-2.3h-8.8v46.5z"/><path class="a" d="m646.5 132.6q-8.7-12.1-8.7-35.9v-47.1q0-16.3 3.5-26.8 3.4-10.5 11.8-16.1 8.4-5.7 23-5.7 19.8 0 28.5 9.9 8.7 9.9 8.7 31.1v5.2h-18.6v-4.3q-0.1-10.1-1.3-15.6-1.2-5.4-5.2-8.2-4-2.8-11.7-2.8-8.3 0-12.4 3.7-4 3.8-5.2 10-1.1 6.3-1.1 16.7v52.1q0 16.2 3.9 23.2 4 7 15.3 7 11.1 0 15.3-7.6 4.1-7.7 4.1-24.5v-9.7h-18.2v-13.9h36.2v69.6h-12.5l-2-16.1q-6.7 17.9-25.4 17.9-19.4 0-28-12.1z"/><path class="a" d="m754.3 93.2l-30.9-91h18.5l21.9 67.9 21.5-67.9h18.7l-30.7 91v49.7h-19z"/></svg>