<svg version="1.2" xmlns="http://www.w3.org/2000/svg" viewBox="0 0 1409 768" width="1409" height="768"><style></style><path fill-rule="evenodd" d="m1124.3 768c-18.1 0-54.9-4-97.4-30.8-30.1-18.8-57.4-47.2-83.7-74.7-20.6-21.4-55-57.3-67.9-57.3-12.6 3.6-22.6 44.9-22.4 76.4 0.2 5.6 0 37.8-21.9 59.2-20 19.5-51.1 23.6-57.1 24.2l-90.4 0.4c-45.3 0-204.5-10.7-348.6-147.3-172.4-163.6-320.8-477.5-327-490.7-9.3-22.5-11.6-52 7.1-72.2 18.4-20.2 50.8-23 63.8-23.4l191.6-1.1 5.4 0.3c4.3 0.7 26.6 4.7 44.9 17.1 18.2 12 27.7 31.7 29.4 35.5 0.5 1.1 30.5 69.8 69.2 130.8 61.6 97 89 119.7 98.7 124.9 8.8-20.3 13-82.9 8.8-139.9 0-24.1-4.8-53.5-11.8-62.3-5.3-6.5-20-12.3-36.5-14.3l-33.9-33.7c-4.5-32.1 29.8-59.8 53.9-70.5 34.6-15.4 84.1-18.6 147.7-18.6l33.3 0.2c58 0.6 76.1 4 100.8 9.4 79.9 17.5 77 84.2 73.6 161.4-1 22.6-2.2 48.7-2.2 79 0 7.3-0.2 15.2-0.5 23.3-0.6 18.5-1.5 50.6 4.4 63.5 10.3-7 40-32.4 97.2-121 36.8-56.7 65.7-123.7 71.2-136.6 8.6-21 28.6-45.9 75.7-46.1l200.6-1.2c0.6-0.1 8.1-0.8 17.7-0.8 46 0 75 14 86 41.7 12.6 31.6 7.9 80.7-110.5 224.4-17.3 21-32.7 39.2-46.1 54.9-28 33-57 67.2-58 77.7 2.5 8.3 31 32.4 58.7 55.8 71.8 60.8 118.7 110.4 142.4 149.8 24.5 37 20.1 64.8 12.1 81.7-19.9 42.1-76.9 47.4-88.1 48l-177.9 2.3c-2.5 0.3-6.8 0.6-12.3 0.6zm-249.1-235.9c42.2 0 79 38.3 117.9 78.9 23.3 24.3 47.4 49.5 70.2 63.7 34.1 21.4 61.7 20.5 65.6 20.1l4.8-0.5 178.6-2.3c8-0.6 19.3-3.5 25.1-6.6-0.8-1.9-2.2-4.6-4.6-8.1-21-35-65.1-80.9-126-132.5-55.6-46.9-84.5-71.4-87.5-109.4-3.1-39.2 23.1-70.1 75.4-131.7 13.1-15.5 28.3-33.4 45.4-54 73.1-88.8 91.8-128.7 96.5-144.1-7.9-1.4-30.4-1-31.8-0.9l-204.6 1.4c-9 0-11.7 1.7-11.7 1.7-8.3 20.2-38.1 88.4-77.2 148.7-88.9 137.4-130.7 155.9-159.9 156-9.5 0-18.5-2.5-26.7-7.2-47-27.8-45.2-89.4-43.8-134.4 0.2-7.2 0.5-14.4 0.5-21 0-31.5 1.2-58.8 2.2-82.3 3.6-81.9 0.8-82.5-17.8-86.6-19.1-4.1-33-7.1-87.1-7.7l-32.5-0.2c-29.3 0-63 0.6-89.4 4.7 4.3 3.6 8.4 7.7 12.1 12.3 27.6 34.3 28.4 95 28.2 106.9 6.1 80.2 2.9 185-47.7 210.2-9 4.5-18.4 6.6-28.1 6.6-43.4 0-87-43.1-160.7-159.2-42-66-73.2-137.6-74.5-140.7-0.5-1-2.5-3.7-3.5-4.5-3.9-2.7-10.9-4.8-15-5.7l-187.8 1.2c-1 0-2.1 0.1-3.2 0.2 27.7 58 160.7 321.3 305.9 459 128.6 122 273.4 128.2 301.1 128.2l86.9-0.2c2.1-0.5 9.9-2.9 12.5-4.7-0.7 0.3-0.4-2.9-0.4-4.9-0.1-12.9 0.6-126.4 74.1-147.8 5.9-1.7 12.2-2.6 18.5-2.6zm-92.2 155.3q0-0.1 0.1-0.2-0.1 0.1-0.1 0.2z"/></svg>